<svg width="69" height="40" viewBox="0 0 69 40" fill="none" xmlns="http://www.w3.org/2000/svg">
<path d="M5.20691 8.75983H64.4842C65.2655 8.75983 65.9816 8.55636 66.6327 8.14943C67.2837 7.74256 67.8127 7.2136 68.2196 6.56253C68.6265 5.91146 68.8299 5.17903 68.8299 4.36523C68.8299 3.58403 68.6265 2.85977 68.2196 2.19243C67.8127 1.5251 67.2837 0.99613 66.6327 0.60553C65.9816 0.214863 65.2655 0.0195312 64.4842 0.0195312H5.20691C4.42564 0.0195312 3.70947 0.214863 3.05841 0.60553C2.40741 0.99613 1.87844 1.5251 1.47151 2.19243C1.06464 2.85977 0.861206 3.58403 0.861206 4.36523C0.861206 5.17903 1.06464 5.91146 1.47151 6.56253C1.87844 7.2136 2.40741 7.74256 3.05841 8.14943C3.70947 8.55636 4.42564 8.75983 5.20691 8.75983ZM5.20691 39.6191H64.4842C65.2655 39.6191 65.9816 39.4238 66.6327 39.0332C67.2837 38.6426 67.8127 38.1137 68.2196 37.4463C68.6265 36.779 68.8299 36.0547 68.8299 35.2734C68.8299 34.4596 68.6265 33.7272 68.2196 33.0762C67.8127 32.4252 67.2837 31.8962 66.6327 31.4893C65.9816 31.0824 65.2655 30.8789 64.4842 30.8789H5.20691C4.42564 30.8789 3.70947 31.0824 3.05841 31.4893C2.40741 31.8962 1.87844 32.4252 1.47151 33.0762C1.06464 33.7272 0.861206 34.4596 0.861206 35.2734C0.861206 36.0547 1.06464 36.779 1.47151 37.4463C1.87844 38.1137 2.40741 38.6426 3.05841 39.0332C3.70947 39.4238 4.42564 39.6191 5.20691 39.6191Z" fill="black"/>
</svg>
