<svg width="52" height="88" viewBox="0 0 52 88" fill="none" xmlns="http://www.w3.org/2000/svg">
<path d="M51.418 44.0585C51.4058 42.0805 50.6283 40.3372 49.0853 38.8285L11.53 2.09851C10.2757 0.849244 8.74938 0.224609 6.95098 0.224609C5.09691 0.224609 3.52714 0.860039 2.24168 2.13091C0.95621 3.40164 0.313477 4.94838 0.313477 6.77111C0.313477 8.57638 1.00211 10.1764 2.37938 11.5711L35.7826 44.0404L2.37938 76.5459C1.00211 77.9527 0.313477 79.5588 0.313477 81.364C0.313477 83.1868 0.95621 84.7335 2.24168 86.0043C3.52714 87.2751 5.09691 87.9105 6.95098 87.9105C8.74938 87.9105 10.2757 87.2859 11.53 86.0367L49.0853 49.2885C49.887 48.4918 50.4762 47.6725 50.8529 46.8306C51.2296 45.9887 51.418 45.0647 51.418 44.0585Z" fill="#0066CC"/>
</svg>
