<svg width="48" height="86" viewBox="0 0 48 86" fill="none" xmlns="http://www.w3.org/2000/svg">
<path d="M47.9341 43.0585C47.9341 41.8126 47.4716 40.7348 46.5467 39.8249L7.86079 2.00111C6.98492 1.13277 5.93165 0.698608 4.70099 0.698608C3.40992 0.698608 2.33872 1.12238 1.48739 1.96991C0.636053 2.81744 0.210388 3.87354 0.210388 5.13821C0.210388 6.32734 0.640754 7.39008 1.50149 8.32641L37.0445 43.0585L1.50149 77.7907C0.640754 78.7269 0.210388 79.7896 0.210388 80.9788C0.210388 82.2435 0.636053 83.2996 1.48739 84.1471C2.33872 84.9947 3.40992 85.4184 4.70099 85.4184C5.93165 85.4184 6.98492 84.9843 7.86079 84.116L46.5467 46.2921C46.9922 45.8202 47.3348 45.3209 47.5745 44.7942C47.8142 44.2676 47.9341 43.689 47.9341 43.0585Z" fill="black"/>
</svg>
