<svg width="66" height="66" viewBox="0 0 66 66" fill="none" xmlns="http://www.w3.org/2000/svg">
<path d="M1.64076 64.0449C2.19416 64.5983 2.84519 64.9727 3.59386 65.168C4.34259 65.3633 5.09943 65.3633 5.86436 65.168C6.62936 64.9727 7.28856 64.5983 7.84196 64.0449L32.842 38.9961L57.8908 64.0449C58.4442 64.5983 59.0952 64.9727 59.8439 65.168C60.5926 65.3633 61.3413 65.3633 62.09 65.168C62.8387 64.9727 63.4897 64.5983 64.0431 64.0449C64.6291 63.4916 65.0116 62.8324 65.1906 62.0674C65.3696 61.3024 65.3696 60.5456 65.1906 59.7969C65.0116 59.0482 64.6291 58.3972 64.0431 57.8438L39.0431 32.7949L64.0431 7.79491C64.6291 7.24151 65.0116 6.59048 65.1906 5.84182C65.3696 5.09315 65.3696 4.33631 65.1906 3.57131C65.0116 2.80631 64.6291 2.14715 64.0431 1.59382C63.4897 1.04042 62.8387 0.666052 62.09 0.470719C61.3413 0.275385 60.5926 0.275385 59.8439 0.470719C59.0952 0.666052 58.4442 1.04042 57.8908 1.59382L32.842 26.6426L7.84196 1.59382C7.28856 1.04042 6.62936 0.666052 5.86436 0.470719C5.09943 0.275385 4.34259 0.275385 3.59386 0.470719C2.84519 0.666052 2.19416 1.04042 1.64076 1.59382C1.05483 2.14715 0.672327 2.80631 0.49326 3.57131C0.31426 4.33631 0.322427 5.09315 0.51776 5.84182C0.713027 6.59048 1.08736 7.24151 1.64076 7.79491L26.6896 32.7949L1.64076 57.8438C1.08736 58.3972 0.713027 59.0482 0.51776 59.7969C0.322427 60.5456 0.31426 61.3024 0.49326 62.0674C0.672327 62.8324 1.05483 63.4916 1.64076 64.0449Z" fill="black"/>
</svg>
