<svg width="42" height="42" viewBox="0 0 42 42" fill="none" xmlns="http://www.w3.org/2000/svg">
<path d="M0 10C0 4.47715 4.47715 0 10 0H32C37.5228 0 42 4.47715 42 10V32C42 37.5228 37.5228 42 32 42H10C4.47715 42 0 37.5228 0 32V10Z" fill="white"/>
<path d="M31.0665 25.3339C22.1136 25.6333 13.9092 29.7044 10.5282 32.8513C10.2152 33.0796 10.2924 33.6679 10.3479 33.7538C10.9934 34.8956 12.1134 35.477 13.5472 35.477H28.2603C30.3489 35.477 32.0575 33.8236 32.0575 31.8017V26.1672C32.0575 25.5084 31.5317 25.3311 31.0665 25.3339Z" fill="#444444"/>
<path d="M32.0574 10.6424C32.0574 8.62188 30.3489 6.96777 28.2603 6.96777H13.5471C11.4592 6.96777 9.75 8.62188 9.75 10.6424V31.8017C9.75 32.069 10.0998 32.3014 10.4604 31.9524C11.1361 31.1547 11.9843 30.5014 13.1108 29.6192V21.8589C13.1108 20.2181 13.3928 18.4879 13.9986 16.8757C14.6347 15.2348 15.7533 13.7105 17.2382 12.7139C17.8743 12.3035 18.6013 11.8052 19.3282 11.6C20.0545 11.3068 20.9033 10.9844 21.7515 10.8964C22.5989 10.7792 23.7196 10.6913 24.9017 10.6913L27.6271 10.6947L28.0937 14.5397C28.0937 14.5397 23.0417 14.1809 21.3353 14.911C19.6283 15.6417 18.6914 17.0815 18.2977 18.6058H22.9018V15.4658H27.6271V23.4376C28.851 23.268 30.1332 23.1647 31.4732 23.1438C31.8886 23.1236 32.0632 22.8039 32.0574 22.515C32.0516 22.2616 32.0574 10.6424 32.0574 10.6424ZM17.8743 26.5469C19.3737 25.7659 21.0497 25.0534 22.9018 24.4831V22.4452H17.8743V26.5469Z" fill="#444444"/>
</svg>
