<svg width="371" height="43" viewBox="0 0 371 43" fill="none" xmlns="http://www.w3.org/2000/svg">
<path d="M32.0665 25.3339C23.1136 25.6333 14.9092 29.7044 11.5282 32.8513C11.2152 33.0796 11.2924 33.6679 11.3479 33.7538C11.9934 34.8956 13.1134 35.477 14.5472 35.477H29.2603C31.3489 35.477 33.0574 33.8236 33.0574 31.8017V26.1672C33.0574 25.5084 32.5317 25.3311 32.0665 25.3339Z" fill="#444444"/>
<path d="M33.0574 10.6424C33.0574 8.62188 31.3489 6.96777 29.2603 6.96777H14.5471C12.4592 6.96777 10.75 8.62188 10.75 10.6424V31.8017C10.75 32.069 11.0998 32.3014 11.4604 31.9524C12.1361 31.1547 12.9843 30.5014 14.1108 29.6192V21.8589C14.1108 20.2181 14.3928 18.4879 14.9986 16.8757C15.6347 15.2348 16.7533 13.7105 18.2382 12.7139C18.8743 12.3035 19.6013 11.8052 20.3282 11.6C21.0545 11.3068 21.9033 10.9844 22.7515 10.8964C23.5989 10.7792 24.7196 10.6913 25.9017 10.6913L28.6271 10.6947L29.0937 14.5397C29.0937 14.5397 24.0417 14.1809 22.3353 14.911C20.6283 15.6417 19.6914 17.0815 19.2977 18.6058H23.9018V15.4658H28.6271V23.4376C29.851 23.268 31.1332 23.1647 32.4732 23.1438C32.8886 23.1236 33.0632 22.8039 33.0574 22.515C33.0516 22.2616 33.0574 10.6424 33.0574 10.6424ZM18.8743 26.5469C20.3737 25.7659 22.0497 25.0534 23.9018 24.4831V22.4452H18.8743V26.5469Z" fill="#444444"/>
<path d="M42.4395 34H45.7617L48.3281 26.7402H58.541L61.1074 34H64.4297L55.0078 8.63477H51.8789L42.4395 34ZM53.4082 12.4316H53.4785L57.5918 24.0508H49.2949L53.4082 12.4316ZM66.873 34H69.9316V22.5391C69.9316 19.9902 71.6895 18.0742 74.1152 18.0742C76.3828 18.0742 77.8594 19.5332 77.8594 21.748V34H80.918V22.3809C80.918 19.8848 82.623 18.0742 85.0488 18.0742C87.457 18.0742 88.8457 19.5684 88.8457 22.082V34H91.9043V21.3789C91.9043 17.7402 89.5664 15.3672 85.9453 15.3672C83.3789 15.3672 81.2344 16.6855 80.2148 18.8828H80.1445C79.3535 16.6504 77.5078 15.3672 75.0117 15.3672C72.6562 15.3672 70.8281 16.5801 70.002 18.3906H69.9316V15.7188H66.873V34ZM104.895 34.3516C109.57 34.3516 112.664 30.625 112.664 24.8594V24.8418C112.664 19.0762 109.535 15.3672 104.947 15.3672C102.363 15.3672 100.236 16.668 99.0938 18.7773H99.0234V8.63477H95.9648V34H99.0234V30.9062H99.0938C100.236 33.0332 102.275 34.3516 104.895 34.3516ZM104.297 31.6445C101.203 31.6445 99.0059 28.9551 99.0059 24.8594V24.8418C99.0059 20.7637 101.221 18.0742 104.297 18.0742C107.531 18.0742 109.535 20.6758 109.535 24.8418V24.8594C109.535 29.0605 107.531 31.6445 104.297 31.6445ZM117.463 12.625C118.535 12.625 119.379 11.7637 119.379 10.709C119.379 9.63672 118.535 8.79297 117.463 8.79297C116.408 8.79297 115.547 9.63672 115.547 10.709C115.547 11.7637 116.408 12.625 117.463 12.625ZM115.934 34H118.992V15.7188H115.934V34ZM130.682 34.3516C134.672 34.3516 137.66 31.9609 138.258 28.9375L138.293 28.7617H135.287L135.234 28.9199C134.707 30.4844 133.072 31.6445 130.752 31.6445C127.5 31.6445 125.426 29.4473 125.355 25.6855H138.521V24.5605C138.521 19.0762 135.48 15.3672 130.488 15.3672C125.496 15.3672 122.262 19.252 122.262 24.9121V24.9297C122.262 30.6777 125.426 34.3516 130.682 34.3516ZM130.471 18.0742C133.143 18.0742 135.111 19.7441 135.41 23.2949H125.408C125.742 19.8848 127.816 18.0742 130.471 18.0742ZM141.615 34H144.674V23.2422C144.674 20.1309 146.555 18.0742 149.438 18.0742C152.25 18.0742 153.639 19.709 153.639 22.6797V34H156.697V22.1348C156.697 17.9688 154.377 15.3672 150.369 15.3672C147.592 15.3672 145.729 16.6152 144.744 18.3203H144.674V15.7188H141.615V34ZM166.541 34.3516C167.139 34.3516 167.789 34.2812 168.176 34.2285V31.75C167.912 31.7676 167.561 31.8203 167.191 31.8203C165.557 31.8203 164.695 31.2754 164.695 29.3242V18.25H168.176V15.7188H164.695V10.7793H161.531V15.7188H158.859V18.25H161.531V29.3418C161.531 32.8398 163.184 34.3516 166.541 34.3516ZM178.459 34.3516C182.449 34.3516 185.438 31.9609 186.035 28.9375L186.07 28.7617H183.064L183.012 28.9199C182.484 30.4844 180.85 31.6445 178.529 31.6445C175.277 31.6445 173.203 29.4473 173.133 25.6855H186.299V24.5605C186.299 19.0762 183.258 15.3672 178.266 15.3672C173.273 15.3672 170.039 19.252 170.039 24.9121V24.9297C170.039 30.6777 173.203 34.3516 178.459 34.3516ZM178.248 18.0742C180.92 18.0742 182.889 19.7441 183.188 23.2949H173.186C173.52 19.8848 175.594 18.0742 178.248 18.0742ZM200.801 34.4395C206.936 34.4395 211.383 30.5898 211.875 25.1934L211.893 25H206.725L206.689 25.1758C206.004 28.1816 203.859 29.9395 200.801 29.9395C196.74 29.9395 194.139 26.6348 194.139 21.291V21.2734C194.139 15.9648 196.74 12.6953 200.801 12.6953C203.965 12.6953 206.039 14.5234 206.637 17.3184L206.707 17.6172H211.875L211.857 17.459C211.365 12.0801 206.953 8.19531 200.801 8.19531C193.4 8.19531 188.725 13.1172 188.725 21.291V21.3086C188.725 29.4824 193.383 34.4395 200.801 34.4395ZM223.389 34.3867C229.084 34.3867 232.723 30.7305 232.723 24.5781V24.543C232.723 18.4434 229.014 14.7695 223.371 14.7695C217.746 14.7695 214.055 18.4785 214.055 24.543V24.5781C214.055 30.7129 217.658 34.3867 223.389 34.3867ZM223.406 30.3613C220.875 30.3613 219.275 28.2695 219.275 24.5781V24.543C219.275 20.9043 220.893 18.7949 223.371 18.7949C225.867 18.7949 227.502 20.9043 227.502 24.543V24.5781C227.502 28.252 225.902 30.3613 223.406 30.3613ZM235.377 34H240.51V23.1719C240.51 20.7109 241.969 19.0234 244.271 19.0234C246.574 19.0234 247.734 20.4297 247.734 22.8906V34H252.867V21.8359C252.867 17.4238 250.512 14.7695 246.363 14.7695C243.516 14.7695 241.582 16.0879 240.615 18.25H240.51V15.1562H235.377V34ZM263.607 34.3867C264.68 34.3867 265.506 34.2812 266.086 34.1934V30.4316C265.77 30.4668 265.436 30.5195 264.979 30.5195C263.432 30.5195 262.641 29.9219 262.641 28.1641V19.0234H266.086V15.1562H262.641V10.5508H257.455V15.1562H254.836V19.0234H257.455V28.7266C257.455 32.7695 259.424 34.3867 263.607 34.3867ZM268.916 34H274.049V23.4531C274.049 20.7109 275.525 19.1992 278.057 19.1992C278.795 19.1992 279.498 19.3047 279.92 19.4805V14.9629C279.533 14.8574 279.006 14.7695 278.443 14.7695C276.246 14.7695 274.717 16.123 274.154 18.4434H274.049V15.1562H268.916V34ZM290.045 34.3867C295.74 34.3867 299.379 30.7305 299.379 24.5781V24.543C299.379 18.4434 295.67 14.7695 290.027 14.7695C284.402 14.7695 280.711 18.4785 280.711 24.543V24.5781C280.711 30.7129 284.314 34.3867 290.045 34.3867ZM290.062 30.3613C287.531 30.3613 285.932 28.2695 285.932 24.5781V24.543C285.932 20.9043 287.549 18.7949 290.027 18.7949C292.523 18.7949 294.158 20.9043 294.158 24.543V24.5781C294.158 28.252 292.559 30.3613 290.062 30.3613ZM302.156 34H307.289V8.63477H302.156V34ZM316.359 34.2988C318.838 34.2988 320.842 33.1211 321.914 31.1875H322.02V34H327.152V21.0801C327.152 17.2832 324.006 14.7695 319.137 14.7695C314.162 14.7695 311.174 17.2656 310.893 20.7461L310.875 20.957H315.568L315.604 20.7988C315.85 19.5859 317.01 18.6895 318.926 18.6895C320.93 18.6895 322.02 19.7266 322.02 21.3965V22.5566L317.361 22.8379C312.686 23.1367 310.031 25.1406 310.031 28.5684V28.6035C310.031 31.9258 312.58 34.2988 316.359 34.2988ZM315.111 28.3398V28.3047C315.111 26.9688 316.148 26.125 318.135 26.002L322.02 25.7559V27.1094C322.02 29.0781 320.332 30.5547 318.029 30.5547C316.254 30.5547 315.111 29.7285 315.111 28.3398ZM337.453 34.3867C340.178 34.3867 342.252 33.0156 343.254 30.7832H343.359V34H348.492V8.63477H343.359V18.4258H343.254C342.234 16.1406 340.125 14.7695 337.453 14.7695C332.707 14.7695 329.789 18.4258 329.789 24.5605V24.5781C329.789 30.6953 332.707 34.3867 337.453 34.3867ZM339.176 30.1328C336.609 30.1328 335.01 28.0059 335.01 24.5781V24.5605C335.01 21.1152 336.627 19.0234 339.176 19.0234C341.654 19.0234 343.377 21.168 343.377 24.5605V24.5781C343.377 27.9883 341.672 30.1328 339.176 30.1328ZM360.568 34.3867C366.264 34.3867 369.902 30.7305 369.902 24.5781V24.543C369.902 18.4434 366.193 14.7695 360.551 14.7695C354.926 14.7695 351.234 18.4785 351.234 24.543V24.5781C351.234 30.7129 354.838 34.3867 360.568 34.3867ZM360.586 30.3613C358.055 30.3613 356.455 28.2695 356.455 24.5781V24.543C356.455 20.9043 358.072 18.7949 360.551 18.7949C363.047 18.7949 364.682 20.9043 364.682 24.543V24.5781C364.682 28.252 363.082 30.3613 360.586 30.3613Z" fill="#444444"/>
</svg>
